<svg xmlns="http://www.w3.org/2000/svg" x="0px" y="0px"
width="35" height="35"
viewBox="0 0 172 172"
style=" fill:#000000;"><defs><linearGradient x1="44.33658" y1="1.33658" x2="124.02275" y2="81.02275" gradientUnits="userSpaceOnUse" id="color-1_eofQ1g5BaAx6_gr1"><stop offset="0" stop-color="#0077d2"></stop><stop offset="1" stop-color="#0b59a2"></stop></linearGradient><linearGradient x1="44.33658" y1="44.33658" x2="124.02275" y2="124.02275" gradientUnits="userSpaceOnUse" id="color-2_eofQ1g5BaAx6_gr2"><stop offset="0" stop-color="#0077d2"></stop><stop offset="1" stop-color="#0b59a2"></stop></linearGradient><linearGradient x1="44.33658" y1="87.33658" x2="124.02275" y2="167.02275" gradientUnits="userSpaceOnUse" id="color-3_eofQ1g5BaAx6_gr3"><stop offset="0" stop-color="#0077d2"></stop><stop offset="1" stop-color="#0b59a2"></stop></linearGradient></defs><g fill="none" fill-rule="nonzero" stroke="none" stroke-width="1" stroke-linecap="butt" stroke-linejoin="miter" stroke-miterlimit="10" stroke-dasharray="" stroke-dashoffset="0" font-family="none" font-weight="none" font-size="none" text-anchor="none" style="mix-blend-mode: normal"><path d="M0,172v-172h172v172z" fill="none"></path><g><path d="M150.5,53.75h-129c-5.9125,0 -10.75,-4.8375 -10.75,-10.75v0c0,-5.9125 4.8375,-10.75 10.75,-10.75h129c5.9125,0 10.75,4.8375 10.75,10.75v0c0,5.9125 -4.8375,10.75 -10.75,10.75z" fill="url(#color-1_eofQ1g5BaAx6_gr1)"></path><path d="M150.5,96.75h-129c-5.9125,0 -10.75,-4.8375 -10.75,-10.75v0c0,-5.9125 4.8375,-10.75 10.75,-10.75h129c5.9125,0 10.75,4.8375 10.75,10.75v0c0,5.9125 -4.8375,10.75 -10.75,10.75z" fill="url(#color-2_eofQ1g5BaAx6_gr2)"></path><path d="M150.5,139.75h-129c-5.9125,0 -10.75,-4.8375 -10.75,-10.75v0c0,-5.9125 4.8375,-10.75 10.75,-10.75h129c5.9125,0 10.75,4.8375 10.75,10.75v0c0,5.9125 -4.8375,10.75 -10.75,10.75z" fill="url(#color-3_eofQ1g5BaAx6_gr3)"></path></g></g></svg>