<svg xmlns="http://www.w3.org/2000/svg" x="0px" y="0px"
width="48" height="48"
viewBox="0 0 172 172"
style=" fill:#000000;"><defs><linearGradient x1="26.99683" y1="26.99683" x2="98.74592" y2="98.74592" gradientUnits="userSpaceOnUse" id="color-1_OZuepOQd0omj_gr1"><stop offset="0" stop-color="#f44f5a"></stop><stop offset="0.443" stop-color="#ee3d4a"></stop><stop offset="1" stop-color="#e52030"></stop></linearGradient><linearGradient x1="98.08658" y1="98.08658" x2="145.15008" y2="145.15008" gradientUnits="userSpaceOnUse" id="color-2_OZuepOQd0omj_gr2"><stop offset="0" stop-color="#a8142e"></stop><stop offset="0.179" stop-color="#ba1632"></stop><stop offset="0.243" stop-color="#c21734"></stop></linearGradient></defs><g fill="none" fill-rule="nonzero" stroke="none" stroke-width="1" stroke-linecap="butt" stroke-linejoin="miter" stroke-miterlimit="10" stroke-dasharray="" stroke-dashoffset="0" font-family="none" font-weight="none" font-size="none" text-anchor="none" style="mix-blend-mode: normal"><path d="M0,172v-172h172v172z" fill="none"></path><g><path d="M152.005,44.43692c2.7735,-2.7735 2.7735,-7.267 0,-10.0405l-14.40142,-14.40142c-2.7735,-2.7735 -7.267,-2.7735 -10.0405,0l-41.56308,41.56308l-41.56308,-41.56308c-2.7735,-2.7735 -7.267,-2.7735 -10.0405,0l-14.40142,14.40142c-2.7735,2.7735 -2.7735,7.267 0,10.0405l41.56308,41.56308l-41.56308,41.56308c-2.7735,2.7735 -2.7735,7.267 0,10.0405l14.40142,14.40142c2.7735,2.7735 7.267,2.7735 10.0405,0z" fill="url(#color-1_OZuepOQd0omj_gr1)"></path><path d="M86,110.44192l41.56308,41.56308c2.7735,2.7735 7.267,2.7735 10.0405,0l14.40142,-14.40142c2.7735,-2.7735 2.7735,-7.267 0,-10.0405l-41.56308,-41.56308z" fill="url(#color-2_OZuepOQd0omj_gr2)"></path></g></g></svg>