<svg xmlns="http://www.w3.org/2000/svg" x="0px" y="0px"
width="50" height="50"
viewBox="0 0 172 172"
style=" fill:#000000;"><g fill="none" fill-rule="nonzero" stroke="none" stroke-width="1" stroke-linecap="butt" stroke-linejoin="miter" stroke-miterlimit="10" stroke-dasharray="" stroke-dashoffset="0" font-family="none" font-weight="none" font-size="none" text-anchor="none" style="mix-blend-mode: normal"><path d="M0,172v-172h172v172z" fill="none"></path><g fill="#f93822"><path d="M13.76,20.64v17.2l-0.43,2.9025c-0.12094,0.71219 -3.01,17.54938 -3.01,26.3375c0,5.56313 1.30344,9.9975 3.655,13.2225c-0.06719,-0.04031 -0.14781,-0.06719 -0.215,-0.1075v84.925h144.48v-84.925c-0.06719,0.04031 -0.13437,0.06719 -0.215,0.1075c2.35156,-3.225 3.655,-7.65937 3.655,-13.2225c0,-8.78812 -2.88906,-25.62531 -3.01,-26.3375l-0.5375,-2.9025h0.1075v-17.2zM19.565,44.72h14.835v30.6375c-2.2575,2.33813 -5.42875,3.7625 -8.6,3.7625c-5.71094,0 -8.6,-4.05812 -8.6,-12.04c0,-6.15437 1.57219,-17.15969 2.365,-22.36zM41.28,44.72h17.2v30.6375c-2.2575,2.33813 -5.42875,3.7625 -8.6,3.7625c-3.17125,0 -6.3425,-1.43781 -8.6,-3.7625zM65.36,44.72h17.2v30.6375c-2.2575,2.33813 -5.42875,3.7625 -8.6,3.7625c-3.17125,0 -6.3425,-1.43781 -8.6,-3.7625zM89.44,44.72h17.2v30.6375c-2.2575,2.33813 -5.42875,3.7625 -8.6,3.7625c-3.17125,0 -6.3425,-1.43781 -8.6,-3.7625zM113.52,44.72h17.2v30.6375c-2.2575,2.33813 -5.42875,3.7625 -8.6,3.7625c-3.17125,0 -6.3425,-1.43781 -8.6,-3.7625zM137.6,44.72h14.7275c0.81969,5.20031 2.4725,16.20563 2.4725,22.36c0,7.98188 -2.88906,12.04 -8.6,12.04c-3.17125,0 -6.3425,-1.43781 -8.6,-3.7625zM34.4,103.2h55.04v41.28h-55.04zM106.64,103.2h30.96v55.04h-30.96z"></path></g></g></svg>